# Blender 3.6.2
# www.blender.org
mtllib obstacle1.mtl
o Cylinder
v -0.596581 -0.050000 0.790361
v -0.596581 0.050000 0.790361
v -0.789809 -0.050000 0.597330
v -0.789809 0.050000 0.597330
v -0.980690 -0.050000 0.136899
v -0.980690 0.050000 0.136899
v -0.980880 -0.050000 -0.136228
v -0.980880 0.050000 -0.136228
v -0.790378 -0.050000 -0.596568
v -0.790378 0.050000 -0.596568
v -0.597342 -0.050000 -0.789791
v -0.597342 0.050000 -0.789791
v -0.136928 -0.050000 -0.980696
v -0.136928 0.050000 -0.980696
v 0.136198 -0.050000 -0.980875
v 0.136198 0.050000 -0.980875
v 0.596573 -0.050000 -0.790368
v 0.596573 0.050000 -0.790368
v 0.789801 -0.050000 -0.597337
v 0.789801 0.050000 -0.597337
v 0.980690 -0.050000 -0.136899
v 0.980690 0.050000 -0.136899
v 0.980880 -0.050000 0.136227
v 0.980880 0.050000 0.136227
v 0.790378 -0.050000 0.596568
v 0.790378 0.050000 0.596568
v 0.597342 -0.050000 0.789791
v 0.597342 0.050000 0.789791
v 0.136928 -0.050000 0.980696
v 0.136928 0.050000 0.980696
v -0.136198 -0.050000 0.980875
v -0.136198 0.050000 0.980875
v -0.000004 0.050000 -0.000003
v -0.000004 -0.050000 -0.000003
v 0.062351 -0.045780 -0.449041
v -0.062685 -0.045780 -0.448959
v -0.273461 -0.045780 -0.361564
v -0.361832 -0.045780 -0.273107
v -0.449044 -0.045780 -0.062365
v -0.448956 -0.045780 0.062672
v -0.361573 -0.045780 0.273453
v -0.273114 -0.045780 0.361822
v -0.062351 -0.045780 0.449041
v 0.062685 -0.045780 0.448959
v 0.273461 -0.045780 0.361564
v 0.361832 -0.045780 0.273107
v 0.449044 -0.045780 0.062364
v 0.448956 -0.045780 -0.062672
v 0.361566 -0.045780 -0.273461
v 0.273107 -0.045780 -0.361830
v -0.361573 0.045780 0.273453
v -0.448956 0.045780 0.062672
v -0.449044 0.045780 -0.062365
v -0.361832 0.045780 -0.273107
v -0.273461 0.045780 -0.361564
v -0.062685 0.045780 -0.448959
v 0.062351 0.045780 -0.449041
v 0.273107 0.045780 -0.361830
v 0.361566 0.045780 -0.273461
v 0.448956 0.045780 -0.062672
v 0.449044 0.045780 0.062364
v 0.361832 0.045780 0.273107
v 0.273461 0.045780 0.361564
v 0.062685 0.045780 0.448959
v -0.062351 0.045780 0.449041
v -0.273114 0.045780 0.361822
v 0.693187 -0.050000 -0.693852
v 0.447429 -0.050000 -0.592777
v 0.592350 -0.050000 -0.448003
v 0.197448 -0.050000 -0.149337
v 0.149141 -0.050000 -0.197595
v 0.725392 -0.050000 -0.661680
v 0.757597 -0.050000 -0.629509
v 0.497144 -0.050000 -0.658640
v 0.546859 -0.050000 -0.724504
v 0.658167 -0.050000 -0.497781
v 0.723984 -0.050000 -0.547559
v 0.263265 -0.050000 -0.199115
v 0.329082 -0.050000 -0.248892
v 0.198855 -0.050000 -0.263458
v 0.248570 -0.050000 -0.329322
v 0.628778 -0.050000 -0.758196
v 0.660983 -0.050000 -0.726024
v 0.348000 -0.050000 -0.461049
v 0.397714 -0.050000 -0.526913
v 0.460716 -0.050000 -0.348448
v 0.526533 -0.050000 -0.398226
v 0.065814 -0.050000 -0.049781
v 0.131631 -0.050000 -0.099559
v 0.049711 -0.050000 -0.065867
v 0.099426 -0.050000 -0.131731
vn -0.7067 -0.0000 0.7075
vn -0.3824 -0.0000 0.9240
vn -1.0000 -0.0000 0.0007
vn -0.9238 -0.0000 0.3830
vn -0.7075 -0.0000 -0.7068
vn -0.9240 -0.0000 -0.3824
vn -0.0007 -0.0000 -1.0000
vn -0.3830 -0.0000 -0.9237
vn 0.7067 -0.0000 -0.7075
vn 0.3824 -0.0000 -0.9240
vn 1.0000 -0.0000 -0.0007
vn 0.9238 -0.0000 -0.3830
vn 0.7075 -0.0000 0.7068
vn 0.9240 -0.0000 0.3824
vn -0.1376 -0.0000 0.9905
vn 0.0007 -0.0000 1.0000
vn 0.3830 -0.0000 0.9237
vn 0.7982 -0.0000 0.6025
vn 0.6032 -0.0000 0.7976
vn -0.0030 1.0000 -0.0030
vn 0.0030 1.0000 0.0030
vn 0.9905 -0.0000 0.1375
vn 0.7976 -0.0000 -0.6032
vn -0.0043 1.0000 -0.0000
vn 0.0043 1.0000 -0.0000
vn 0.1376 -0.0000 -0.9905
vn -0.0000 1.0000 -0.0043
vn -0.0030 1.0000 0.0030
vn -0.6032 -0.0000 -0.7976
vn -0.9905 -0.0000 -0.1375
vn 0.0030 1.0000 -0.0030
vn -0.7976 -0.0000 0.6032
vn -0.0000 1.0000 0.0043
vn -0.0005 -1.0000 0.0005
vn 0.1383 -0.0000 0.9904
vn 0.0030 -1.0000 -0.0030
vn -0.0043 -1.0000 -0.0000
vn -0.6024 -0.0000 0.7982
vn -0.9904 -0.0000 0.1383
vn 0.0043 -1.0000 -0.0000
vn -0.0030 -1.0000 -0.0030
vn -0.7982 -0.0000 -0.6025
vn -0.1383 -0.0000 -0.9904
vn 0.0030 -1.0000 0.0030
vn 0.6024 -0.0000 -0.7982
vn 0.9904 -0.0000 -0.1383
vn -0.0000 -1.0000 -0.0043
vn -0.0000 -1.0000 0.0043
vn -0.0000 1.0000 -0.0000
vn -0.0000 -1.0000 -0.0000
vt 1.000000 0.500000
vt 1.000000 1.000000
vt 0.937500 1.000000
vt 0.937500 0.500000
vt 0.000000 0.000000
vt 0.875000 0.500000
vt 0.875000 1.000000
vt 0.812500 1.000000
vt 0.812500 0.500000
vt 0.750000 0.500000
vt 0.750000 1.000000
vt 0.687500 1.000000
vt 0.687500 0.500000
vt 0.625000 0.500000
vt 0.625000 1.000000
vt 0.562500 1.000000
vt 0.562500 0.500000
vt 0.500000 0.500000
vt 0.500000 1.000000
vt 0.437500 1.000000
vt 0.437500 0.500000
vt 0.447917 0.500000
vt 0.458333 0.500000
vt 0.468750 0.500000
vt 0.479167 0.500000
vt 0.489583 0.500000
vt 0.375000 0.500000
vt 0.375000 1.000000
vt 0.312500 1.000000
vt 0.312500 0.500000
vt 0.250000 0.500000
vt 0.250000 1.000000
vt 0.187500 1.000000
vt 0.187500 0.500000
vt 0.528269 0.158156
vt 0.028269 0.158156
vt 0.639134 0.204078
vt 0.125000 0.500000
vt 0.125000 1.000000
vt 0.062500 1.000000
vt 0.062500 0.500000
vt 0.750000 0.490000
vt 0.750000 0.370000
vt 0.250000 0.490000
vt 0.658156 0.028269
vt 0.158156 0.028269
vt 0.704078 0.139134
vt 0.696424 0.120657
vt 0.688771 0.102179
vt 0.681117 0.083702
vt 0.673463 0.065224
vt 0.665810 0.046747
vt 0.250000 0.250000
vt 0.139134 0.295922
vt 0.028269 0.341844
vt 0.010000 0.250000
vt 0.130000 0.250000
vt 0.490000 0.250000
vt 0.370000 0.250000
vt 0.360866 0.204078
vt 0.471731 0.158156
vt 0.841844 0.028269
vt 0.341844 0.028269
vt 0.795922 0.139134
vt 0.971731 0.158156
vt 0.860866 0.204078
vt 0.139134 0.204078
vt 0.080294 0.080294
vt 0.165147 0.165147
vt 0.419706 0.419706
vt 0.334853 0.334853
vt 0.360866 0.295922
vt 0.471731 0.341844
vt 0.971731 0.341844
vt 0.860866 0.295922
vt 0.158156 0.471731
vt 0.080294 0.419706
vt 0.165147 0.334853
vt 0.204078 0.360866
vt 0.204078 0.139134
vt 0.250000 0.010000
vt 0.250000 0.130000
vt 0.841844 0.471731
vt 0.341844 0.471731
vt 0.795922 0.360866
vt 0.704078 0.360866
vt 0.658156 0.471731
vt 0.250000 0.370000
vt 0.295922 0.360866
vt 0.528269 0.341844
vt 0.639134 0.295922
vt 0.419706 0.080294
vt 0.334853 0.165147
vt 0.295922 0.139134
vt 0.711732 0.157612
vt 0.719385 0.176090
vt 0.727039 0.194567
vt 0.734693 0.213045
vt 0.742346 0.231522
vt 0.750000 0.250000
vt 0.750000 0.230000
vt 0.750000 0.210000
vt 0.750000 0.190000
vt 0.750000 0.170000
vt 0.750000 0.150000
vt 0.750000 0.130000
vt 0.750000 0.110000
vt 0.750000 0.090000
vt 0.750000 0.070000
vt 0.750000 0.050000
vt 0.750000 0.030000
vt 0.750000 0.010000
vt 0.734693 0.013045
vt 0.719385 0.016090
vt 0.704078 0.019134
vt 0.688771 0.022179
vt 0.673463 0.025224
vt 0.919706 0.419706
vt 0.834853 0.334853
vt 0.665147 0.165147
vt 0.580294 0.080294
vt 0.990000 0.250000
vt 0.870000 0.250000
vt 0.919706 0.080294
vt 0.834853 0.165147
vt 0.630000 0.250000
vt 0.510000 0.250000
vt 0.580294 0.419706
vt 0.665147 0.334853
s 0
f 1/1/1 2/2/1 4/3/1 3/4/1
f 43/5/2 65/5/2 66/5/2 42/5/2
f 5/6/3 6/7/3 8/8/3 7/9/3
f 41/5/4 51/5/4 52/5/4 40/5/4
f 9/10/5 10/11/5 12/12/5 11/13/5
f 39/5/6 53/5/6 54/5/6 38/5/6
f 13/14/7 14/15/7 16/16/7 15/17/7
f 37/5/8 55/5/8 56/5/8 36/5/8
f 17/18/9 18/19/9 20/20/9 19/21/9 73/22/9 72/23/9 67/24/9 83/25/9 82/26/9
f 35/5/10 57/5/10 58/5/10 50/5/10
f 21/27/11 22/28/11 24/29/11 23/30/11
f 49/5/12 59/5/12 60/5/12 48/5/12
f 25/31/13 26/32/13 28/33/13 27/34/13
f 47/5/14 61/5/14 62/5/14 46/5/14
f 23/35/15 24/36/15 61/5/15 47/37/15
f 29/38/16 30/39/16 32/40/16 31/41/16
f 45/5/17 63/5/17 64/5/17 44/5/17
f 1/42/18 42/43/18 66/5/18 2/44/18
f 19/45/19 20/46/19 59/5/19 49/47/19 86/48/19 87/49/19 69/50/19 76/51/19 77/52/19
f 33/53/20 63/54/20 28/55/20 26/56/20 62/57/20
f 10/58/21 54/59/21 33/53/21 55/60/21 12/61/21
f 15/62/22 16/63/22 57/5/22 35/64/22
f 11/65/23 12/61/23 55/5/23 37/66/23
f 33/53/24 61/67/24 24/36/24 22/68/24 60/69/24
f 6/70/25 52/71/25 33/53/25 53/72/25 8/73/25
f 7/74/26 8/73/26 53/5/26 39/75/26
f 32/76/27 30/77/27 64/78/27 33/53/27 65/79/27
f 33/53/28 59/80/28 20/46/28 18/81/28 58/82/28
f 3/83/29 4/84/29 51/5/29 41/85/29
f 43/86/30 31/87/30 32/40/30 65/79/30
f 4/84/31 2/44/31 66/88/31 33/53/31 51/89/31
f 27/90/32 28/55/32 63/5/32 45/91/32
f 14/92/33 56/93/33 33/53/33 57/94/33 16/63/33
f 19/45/34 77/52/34 76/51/34 69/50/34 87/49/34 86/48/34 49/47/34 79/95/34 78/96/34 70/97/34 89/98/34 88/99/34 34/100/34 90/101/34 91/102/34 71/103/34 80/104/34 81/105/34 50/106/34 84/107/34 85/108/34 68/109/34 74/110/34 75/111/34 17/112/34 82/113/34 83/114/34 67/115/34 72/116/34 73/117/34
f 5/118/35 40/119/35 52/5/35 6/70/35
f 1/42/36 3/83/36 41/85/36 34/100/36 42/43/36
f 23/35/37 47/37/37 34/100/37 48/120/37 21/121/37
f 9/122/38 38/123/38 54/5/38 10/58/38
f 13/124/39 36/125/39 56/5/39 14/92/39
f 5/118/40 7/74/40 39/75/40 34/100/40 40/119/40
f 27/90/41 45/91/41 34/100/41 46/126/41 25/127/41
f 17/112/42 75/111/42 74/110/42 68/109/42 85/108/42 84/107/42 50/106/42 58/5/42 18/81/42
f 21/121/43 48/120/43 60/5/43 22/68/43
f 9/122/44 11/65/44 37/66/44 34/100/44 38/123/44
f 25/127/45 46/126/45 62/5/45 26/56/45
f 29/128/46 44/129/46 64/5/46 30/77/46
f 29/128/47 31/87/47 43/86/47 34/100/47 44/129/47
f 13/124/48 15/62/48 35/64/48 34/100/48 36/125/48
f 52/5/49 51/5/49 66/5/49 65/5/49 64/5/49 63/5/49 62/5/49 61/5/49 60/5/49 59/5/49 58/5/49 57/5/49 56/5/49 55/5/49 54/5/49 53/5/49
f 36/5/50 35/5/50 50/5/50 49/5/50 48/5/50 47/5/50 46/5/50 45/5/50 44/5/50 43/5/50 42/5/50 41/5/50 40/5/50 39/5/50 38/5/50 37/5/50
